<svg width="18" height="18" viewBox="0 0 18 18" fill="none" xmlns="http://www.w3.org/2000/svg">
<g clip-path="url(#clip0_1_371)">
<path d="M16.65 1.62225C16.2224 1.26552 15.7208 1.00849 15.1815 0.869807C14.6423 0.731127 14.0789 0.714284 13.5322 0.820502L12.2092 1.1445C11.5188 1.27102 10.8946 1.63563 10.4453 2.17487C9.99594 2.71411 9.74991 3.39384 9.75 4.09575V15.696C9.25265 15.7688 8.74735 15.7688 8.25 15.696V4.09575C8.25249 3.40031 8.01213 2.72581 7.57042 2.18866C7.1287 1.6515 6.51333 1.28539 5.8305 1.1535L4.425 0.811502C3.88437 0.712572 3.3286 0.73369 2.79703 0.873359C2.26547 1.01303 1.7711 1.26783 1.34892 1.61974C0.92675 1.97165 0.58709 2.41205 0.353987 2.90978C0.120884 3.40751 3.66093e-05 3.95039 0 4.5L0 12.5948C4.30919e-05 13.4729 0.308232 14.3231 0.87085 14.9973C1.43347 15.6715 2.21483 16.1268 3.07875 16.284L7.79325 17.1413C8.59122 17.2862 9.40878 17.2862 10.2067 17.1413L14.925 16.284C15.7882 16.126 16.5687 15.6703 17.1306 14.9962C17.6925 14.3221 18.0001 13.4723 18 12.5948V4.5C18.0003 3.95059 17.8795 3.40785 17.6462 2.91045C17.4129 2.41304 17.0727 1.9732 16.65 1.62225Z" fill="white"/>
</g>
<defs>
<clipPath id="clip0_1_371">
<rect width="18" height="18" fill="white"/>
</clipPath>
</defs>
</svg>
