<svg width="40" height="40" viewBox="0 0 40 40" fill="none" xmlns="http://www.w3.org/2000/svg">
<g clip-path="url(#clip0_1_1471)">
<path d="M7.00028 19.9861C6.99008 22.5504 9.06067 24.6376 11.6251 24.6478C12.8061 24.6525 13.9446 24.2069 14.8087 23.4019L21.7282 26.526C21.6801 26.7848 21.6537 27.047 21.6493 27.3101C21.6411 29.8922 23.7277 31.9919 26.3097 32.0001C28.8918 32.0083 30.9916 29.9218 30.9998 27.3397C31.008 24.7576 28.9214 22.6578 26.3393 22.6496C24.7966 22.6448 23.3509 23.4012 22.4753 24.6713L15.9743 21.7359C16.436 20.6209 16.4378 19.3685 15.9793 18.2522L22.4713 15.3018C23.9332 17.4161 26.8323 17.945 28.9466 16.4831C31.0609 15.0212 31.5897 12.1222 30.1278 10.0079C28.666 7.89353 25.7669 7.36468 23.6526 8.82655C22.3934 9.69717 21.6429 11.1312 21.6453 12.6621C21.6495 12.9256 21.6762 13.1882 21.7252 13.4471L14.8237 16.5832C12.9538 14.8274 10.0147 14.9199 8.25888 16.7897C7.44627 17.6552 6.99588 18.7989 7.00028 19.9861Z" fill="white"/>
</g>
<defs>
<clipPath id="clip0_1_1471">
<rect width="24" height="24" fill="white" transform="translate(7 8)"/>
</clipPath>
</defs>
</svg>
