<svg width="40" height="40" viewBox="0 0 40 40" fill="none" xmlns="http://www.w3.org/2000/svg">
<circle cx="20" cy="20" r="20" fill="#E1E1E1"/>
<g clip-path="url(#clip0_1_1400)">
<path d="M27 14H25.774C27.187 12.62 27.403 10.805 26.319 9.35999C25.774 8.63199 24.979 8.16199 24.08 8.03399C23.178 7.90299 22.285 8.13599 21.559 8.67999C20.881 9.18799 20.381 9.83499 20.012 10.493C19.643 9.83399 19.143 9.18799 18.465 8.67999C17.739 8.13499 16.844 7.90299 15.945 8.03399C15.046 8.16199 14.251 8.63299 13.706 9.35999C12.628 10.797 12.836 12.6 14.253 14H13C10.243 14 8 16.243 8 19V27C8 29.757 10.243 32 13 32H27C29.757 32 32 29.757 32 27V19C32 16.243 29.757 14 27 14ZM22.76 10.28C23.005 10.096 23.297 9.99999 23.597 9.99999C24 9.99999 24.495 10.261 24.72 10.56C25.361 11.414 24.763 12.204 24.377 12.573C22.816 13.958 21.16 14 21.019 14.001H21.006C21.025 13.91 21.031 13.815 21.023 13.718L21.021 13.697C21.11 13.099 21.482 11.238 22.76 10.28ZM15.676 12.596C15.262 12.201 14.665 11.414 15.306 10.559C15.531 10.26 15.858 10.066 16.228 10.013C16.601 9.96499 16.967 10.056 17.266 10.28C18.545 11.239 18.917 13.102 19.006 13.696L19.004 13.717C18.996 13.814 19.002 13.909 19.021 14H19.008C18.867 14 17.211 13.957 15.676 12.596ZM13 15.999H18.824C18.073 17.95 15.158 17.998 14.998 17.999C14.446 17.999 13.999 18.447 13.999 18.999C13.999 19.551 14.447 19.999 14.999 19.999C16.416 19.999 18.696 19.511 19.999 17.943C21.302 19.512 23.582 19.999 24.999 19.999C25.551 19.999 25.999 19.552 25.999 18.999C25.999 18.446 25.551 17.999 24.999 17.999C24.857 17.999 21.921 17.973 21.172 15.999H26.999C28.653 15.999 29.999 17.345 29.999 18.999V24.999H10V18.999C10 17.345 11.346 15.999 13 15.999ZM27 29.999H13C11.346 29.999 10 28.653 10 26.999H30C30 28.653 28.654 29.999 27 29.999Z" fill="#5A5A5A"/>
</g>
<defs>
<clipPath id="clip0_1_1400">
<rect width="24" height="24" fill="white" transform="translate(8 8)"/>
</clipPath>
</defs>
</svg>
