<svg width="30" height="30" viewBox="0 0 30 30" fill="none" xmlns="http://www.w3.org/2000/svg">
<circle cx="15" cy="15" r="15" fill="#E1E1E1"/>
<g clip-path="url(#clip0_1_468)">
<path d="M6.00027 14.9903C5.99325 16.7533 7.41679 18.1882 9.17983 18.1952C9.99178 18.1985 10.7745 17.8922 11.3685 17.3387L16.1257 19.4866C16.0926 19.6644 16.0745 19.8447 16.0715 20.0256C16.0659 21.8008 17.5003 23.2444 19.2755 23.25C21.0507 23.2556 22.4943 21.8211 22.4999 20.0459C22.5056 18.2708 21.071 16.8272 19.2959 16.8215C18.2353 16.8182 17.2413 17.3382 16.6393 18.2114L12.1699 16.1933C12.4873 15.4268 12.4886 14.5657 12.1733 13.7983L16.6366 11.7699C17.6416 13.2235 19.6348 13.5871 21.0884 12.582C22.542 11.577 22.9055 9.5839 21.9005 8.1303C20.8954 6.67671 18.9023 6.31312 17.4487 7.31816C16.583 7.91671 16.0671 8.90263 16.0687 9.95508C16.0716 10.1362 16.09 10.3168 16.1236 10.4948L11.3788 12.6509C10.0933 11.4438 8.07266 11.5073 6.86555 12.7929C6.30688 13.3879 5.99724 14.1742 6.00027 14.9903Z" fill="#5A5A5A"/>
</g>
<defs>
<clipPath id="clip0_1_468">
<rect width="16.5" height="16.5" fill="white" transform="translate(6 6.75)"/>
</clipPath>
</defs>
</svg>
