<svg width="40" height="40" viewBox="0 0 40 40" fill="none" xmlns="http://www.w3.org/2000/svg">
<circle cx="20" cy="20" r="20" fill="#E1E1E1"/>
<g clip-path="url(#clip0_1_1394)">
<path d="M8.00028 19.9871C7.99092 22.3378 9.88897 24.251 12.2397 24.2603C13.3223 24.2646 14.3659 23.8562 15.158 23.1182L21.5008 25.9821C21.4568 26.2192 21.4326 26.4596 21.4285 26.7008C21.4211 29.0677 23.3337 30.9925 25.7006 31C28.0675 31.0075 29.9923 29.0948 29.9998 26.7279C30.0073 24.361 28.0946 22.4362 25.7277 22.4287C24.3136 22.4243 22.9883 23.1176 22.1857 24.2819L16.2264 21.5911C16.6497 20.569 16.6513 19.421 16.231 18.3977L22.1821 15.6932C23.5221 17.6313 26.1796 18.1161 28.1177 16.776C30.0559 15.436 30.5406 12.7785 29.2005 10.8404C27.8605 8.90227 25.203 8.41749 23.2649 9.75755C22.1106 10.5556 21.4227 11.8702 21.4248 13.2734C21.4287 13.515 21.4532 13.7557 21.4981 13.9931L15.1717 16.8678C13.4577 15.2584 10.7635 15.3431 9.15399 17.0571C8.4091 17.8505 7.99624 18.8989 8.00028 19.9871Z" fill="#5A5A5A"/>
</g>
<defs>
<clipPath id="clip0_1_1394">
<rect width="22" height="22" fill="white" transform="translate(8 9)"/>
</clipPath>
</defs>
</svg>
