<svg width="30" height="30" viewBox="0 0 30 30" fill="none" xmlns="http://www.w3.org/2000/svg">
<circle cx="15" cy="15" r="15" fill="#E1E1E1"/>
<g clip-path="url(#clip0_1_502)">
<path d="M20.25 10.4999H19.3305C20.3903 9.46485 20.5522 8.1036 19.7393 7.01985C19.3305 6.47385 18.7343 6.12135 18.06 6.02535C17.3835 5.9271 16.7137 6.10185 16.1693 6.50985C15.6608 6.89085 15.2858 7.3761 15.009 7.8696C14.7323 7.37535 14.3573 6.89085 13.8488 6.50985C13.3043 6.1011 12.633 5.9271 11.9588 6.02535C11.2845 6.12135 10.6883 6.4746 10.2795 7.01985C9.471 8.0976 9.627 9.44985 10.6897 10.4999H9.75C7.68225 10.4999 6 12.1821 6 14.2499V20.2499C6 22.3176 7.68225 23.9999 9.75 23.9999H20.25C22.3177 23.9999 24 22.3176 24 20.2499V14.2499C24 12.1821 22.3177 10.4999 20.25 10.4999ZM17.07 7.70985C17.2537 7.57185 17.4727 7.49985 17.6978 7.49985C18 7.49985 18.3712 7.6956 18.54 7.91985C19.0207 8.56035 18.5723 9.15285 18.2828 9.4296C17.112 10.4684 15.87 10.4999 15.7642 10.5006H15.7545C15.7687 10.4324 15.7732 10.3611 15.7673 10.2884L15.7657 10.2726C15.8325 9.8241 16.1115 8.42835 17.07 7.70985ZM11.757 9.44685C11.4465 9.1506 10.9988 8.56035 11.4795 7.9191C11.6483 7.69485 11.8935 7.54935 12.171 7.5096C12.4507 7.4736 12.7252 7.54185 12.9495 7.70985C13.9088 8.4291 14.1877 9.82635 14.2545 10.2719L14.253 10.2876C14.247 10.3604 14.2515 10.4316 14.2657 10.4999H14.256C14.1503 10.4999 12.9082 10.4676 11.757 9.44685ZM9.75 11.9991H14.118C13.5548 13.4624 11.3685 13.4984 11.2485 13.4991C10.8345 13.4991 10.4992 13.8351 10.4992 14.2491C10.4992 14.6631 10.8352 14.9991 11.2492 14.9991C12.312 14.9991 14.022 14.6331 14.9992 13.4571C15.9765 14.6339 17.6865 14.9991 18.7493 14.9991C19.1632 14.9991 19.4993 14.6639 19.4993 14.2491C19.4993 13.8344 19.1632 13.4991 18.7493 13.4991C18.6428 13.4991 16.4408 13.4796 15.879 11.9991H20.2493C21.4898 11.9991 22.4993 13.0086 22.4993 14.2491V18.7491H7.5V14.2491C7.5 13.0086 8.5095 11.9991 9.75 11.9991ZM20.25 22.4991H9.75C8.5095 22.4991 7.5 21.4896 7.5 20.2491H22.5C22.5 21.4896 21.4905 22.4991 20.25 22.4991Z" fill="#5A5A5A"/>
</g>
<defs>
<clipPath id="clip0_1_502">
<rect width="18" height="18" fill="white" transform="translate(6 6)"/>
</clipPath>
</defs>
</svg>
