<svg width="40" height="40" viewBox="0 0 40 40" fill="none" xmlns="http://www.w3.org/2000/svg">
<circle cx="20" cy="20" r="20" fill="#E1E1E1"/>
<g clip-path="url(#clip0_1_1415)">
<path d="M24 8H16C13.243 8 11 10.243 11 13V27C11 29.757 13.243 32 16 32H24C26.757 32 29 29.757 29 27V13C29 10.243 26.757 8 24 8ZM27 27C27 28.654 25.654 30 24 30H16C14.346 30 13 28.654 13 27V13C13 11.346 14.346 10 16 10H24C25.654 10 27 11.346 27 13V27ZM25 14C25 14.553 24.553 15 24 15H16C15.447 15 15 14.553 15 14C15 13.447 15.447 13 16 13H24C24.553 13 25 13.447 25 14ZM25 19C25 19.553 24.553 20 24 20H16C15.447 20 15 19.553 15 19C15 18.447 15.447 18 16 18H24C24.553 18 25 18.447 25 19ZM21 24C21 24.553 20.553 25 20 25H16C15.447 25 15 24.553 15 24C15 23.447 15.447 23 16 23H20C20.553 23 21 23.447 21 24Z" fill="#5A5A5A"/>
</g>
<defs>
<clipPath id="clip0_1_1415">
<rect width="24" height="24" fill="white" transform="translate(8 8)"/>
</clipPath>
</defs>
</svg>
