<svg width="18" height="18" viewBox="0 0 18 18" fill="none" xmlns="http://www.w3.org/2000/svg">
<g clip-path="url(#clip0_1_366)">
<path d="M7.005 8.09475C6.29138 7.19376 5.93804 6.05974 6.01357 4.91286C6.0891 3.76599 6.58813 2.68811 7.41375 1.8885L7.8885 1.413C8.68817 0.587692 9.76595 0.0889389 10.9126 0.0135458C12.0593 -0.0618474 13.1932 0.291498 14.094 1.005C14.5759 1.40456 14.9682 1.90109 15.2455 2.46228C15.5228 3.02348 15.6788 3.63676 15.7035 4.26225C15.7299 4.88503 15.6268 5.50652 15.4007 6.08743C15.1747 6.66835 14.8306 7.19607 14.3902 7.63725L13.6402 8.38725C12.795 9.2307 11.6499 9.70481 10.4557 9.70575C10.3912 9.70575 10.3267 9.70425 10.2622 9.70125C9.63703 9.67678 9.02395 9.52112 8.46279 9.24435C7.90164 8.96759 7.40496 8.57591 7.005 8.09475ZM14.0677 12C13.5513 11.9988 13.0396 12.0999 12.5625 12.2975C12.0853 12.4951 11.6519 12.7853 11.2875 13.1512C10.2285 14.2163 8.9688 15.0607 7.58125 15.6355C6.1937 16.2103 4.70589 16.5041 3.204 16.5H2.3415C2.17507 16.5002 2.01232 16.4511 1.87386 16.3588C1.73539 16.2665 1.62743 16.1351 1.56366 15.9814C1.4999 15.8277 1.48318 15.6585 1.51564 15.4953C1.5481 15.332 1.62827 15.1821 1.746 15.0645L2.271 14.5395C3.5732 14.4521 4.79928 13.8945 5.721 12.9705L8.0115 10.68C7.17966 10.3104 6.44282 9.75645 5.85675 9.06C5.5292 8.66727 5.25623 8.23208 5.04525 7.76625L2.775 10.0342C1.8507 10.9558 1.29305 12.182 1.206 13.4842L0.680996 14.0092C0.355083 14.3372 0.13359 14.7543 0.044458 15.208C-0.0446742 15.6617 0.00254656 16.1316 0.180164 16.5585C0.357781 16.9853 0.657838 17.3501 1.04249 17.6066C1.42713 17.8631 1.87914 18 2.3415 18H3.204C4.90287 18.0046 6.58579 17.6722 8.15536 17.0221C9.72492 16.372 11.15 15.417 12.348 14.2125C12.6881 13.8724 13.1214 13.6408 13.5931 13.547C14.0648 13.4531 14.5538 13.5012 14.9982 13.6852C15.4425 13.8692 15.8224 14.1808 16.0897 14.5806C16.357 14.9804 16.4998 15.4505 16.5 15.9315V17.25C16.5 17.4489 16.579 17.6397 16.7197 17.7803C16.8603 17.921 17.0511 18 17.25 18C17.4489 18 17.6397 17.921 17.7803 17.7803C17.921 17.6397 18 17.4489 18 17.25V15.9315C17.9986 14.8891 17.5838 13.8898 16.8467 13.1528C16.1095 12.4158 15.1101 12.0012 14.0677 12Z" fill="white"/>
</g>
<defs>
<clipPath id="clip0_1_366">
<rect width="18" height="18" fill="white"/>
</clipPath>
</defs>
</svg>
